<?xml version="1.0" encoding="UTF-8"?>
<svg id="Calque_2" data-name="Calque 2" xmlns="http://www.w3.org/2000/svg" viewBox="0 0 367.71 300.4">
  <defs>
    <style>
      .cls-1 {
        fill: #6ec3c2;
      }
    </style>
  </defs>
  <g id="Calque_2-2" data-name="Calque 2">
    <g>
      <path class="cls-1" d="m183.64,261.81c-39.64-.61-70.33-9.52-85.57-14.7-33.38-11.32-58.51-26.94-75-39-.72-.07-1.67-.04-2.52.47-3.29,1.97-2.17,9.28-1.48,13.53.76,4.65,1.97,11.64,7,20,5.49,9.12,12.17,14.32,17,18,8.11,6.19,15.4,9.44,19,11,51.66,22.35,86,27,86,27,4.51.61,17.67,2.27,36,2.28v-.1c-.14,0-.28,0-.43,0v-38.49Z"/>
      <path class="cls-1" d="m85.07,37.12h40q42,0,42,0c6.8-.01,12.26-.05,17-.11v-.09c-.14,0-.29,0-.43,0V.29C135.93.04,98.07.12,98.07.12c-.4-.01-1.39-.04-2.62-.01-29.65.63-59.2,27.47-69.38,56.01-.51,1.44-.88,2.6-1,3,12.1-7.14,22.83-11.87,31-15,7.57-2.9,19.55-6.96,29-7Z"/>
      <path class="cls-1" d="m81,208.59c44.74,0,81-32.68,81-73S125.74,62.59,81,62.59,0,95.27,0,135.59s36.26,73,81,73Zm0-110c20.43,0,37,16.57,37,37s-16.57,37-37,37-37-16.57-37-37,16.57-37,37-37Z"/>
      <path class="cls-1" d="m347.16,208.49c-.85-.51-1.8-.54-2.52-.47-16.49,12.06-41.62,27.68-75,39-15.3,5.19-46.15,14.16-86,14.7v38.58c.14,0,.28,0,.43,0,18.11-.03,31.1-1.67,35.57-2.28,0,0,34.34-4.65,86-27,3.6-1.56,10.89-4.81,19-11,4.83-3.68,11.51-8.88,17-18,5.03-8.36,6.24-15.35,7-20,.69-4.25,1.81-11.56-1.48-13.53Z"/>
      <path class="cls-1" d="m184.07,36.91c4.64.06,9.97.1,16.57.11t42,0h40c9.45.04,21.43,4.1,29,7,8.17,3.13,18.9,7.86,31,15-.12-.4-.49-1.56-1-3C331.46,27.48,301.91.65,272.26.01c-1.24-.03-2.22,0-2.62.01,0,0-38.08-.07-86,.18v36.71c.14,0,.29,0,.43,0Z"/>
      <path class="cls-1" d="m205.71,135.49c0,40.32,36.26,73,81,73s81-32.68,81-73-36.26-73-81-73-81,32.68-81,73Zm118,0c0,20.43-16.57,37-37,37s-37-16.57-37-37,16.57-37,37-37,37,16.57,37,37Z"/>
    </g>
  </g>
</svg>